<svg id="Icon" xmlns="http://www.w3.org/2000/svg" width="20" height="20" viewBox="0 0 20 20">
  <path id="Path_1083" data-name="Path 1083" d="M4.432,144.953l-.7,2.6-2.544.054a10.017,10.017,0,0,1-.074-9.338h0l2.265.415.992,2.252a5.968,5.968,0,0,0,.056,4.018Z" transform="translate(0 -132.867)" fill="#fff"/>
  <path id="Path_1084" data-name="Path 1084" d="M271.233,208.176a10,10,0,0,1-3.565,9.666h0l-2.853-.146-.4-2.521a5.96,5.96,0,0,0,2.564-3.043h-5.347v-3.956h9.605Z" transform="translate(-251.408 -200.044)" fill="#fff"/>
  <path id="Path_1085" data-name="Path 1085" d="M45.577,315.121h0a10,10,0,0,1-15.069-3.059l3.241-2.653a5.947,5.947,0,0,0,8.57,3.045Z" transform="translate(-29.317 -297.323)" fill="#fff"/>
  <path id="Path_1086" data-name="Path 1086" d="M43.889,2.3l-3.24,2.652a5.947,5.947,0,0,0-8.767,3.114L28.625,5.4h0A10,10,0,0,1,43.889,2.3Z" transform="translate(-27.506)" fill="#fff"/>
</svg>
