<svg xmlns="http://www.w3.org/2000/svg" width="348.068" height="250.121" viewBox="0 0 348.068 250.121">
  <g id="Group_9786" data-name="Group 9786" transform="translate(-33.966 -89.14)">
    <g id="Group_464" data-name="Group 464" transform="translate(33.966 89.14)">
      <g id="Group_408" data-name="Group 408">
        <path id="Path_421" data-name="Path 421" d="M356.512,339.208c20.442,0,32.817-20.933,20.8-35.839q-.379-.471-.784-.929c-7.346-8.328-18.5-11.312-28.37-15.959-2.729-1.284-5.473-2.784-7.378-5.2-2.653-3.363-3.289-8.065-2.741-12.388,2.3-18.093,22.026-29.246,25.21-47.191,2.409-13.575-5.9-27.359-17.158-34.544s-24.863-8.992-38.035-9.553-26.526-.064-39.347-3.276c-3.381-.847-6.882-2.066-9.18-4.8-2.605-3.1-3.152-7.576-2.738-11.681,1.117-11.066,26.333-49.113,13.7-61.668a23.162,23.162,0,0,0-18.505-6.937c-6.787.682-13.127,3.8-19.07,7.3-12.558,7.4-56.362,56.439-72.123,63.851-15.49,7.284-33.28,5.142-50.256,4.792S74.7,167.366,63.6,180.829c-3.93,4.767-6.643,11.19-5.323,17.335a21.907,21.907,0,0,0,5.727,9.977c5.957,6.454,13.722,10.906,19.356,17.671s8.608,17.5,3.309,24.56c-2.056,2.737-5.045,4.5-7.973,6.149-16.376,9.234-34.749,18.71-41.9,36.69-3.653,9.183-3.583,19.307-.871,28.837,2.873,10.1,12.971,17.161,24.537,17.161Z" transform="translate(-33.966 -89.14)" fill="#cae2ff"/>
        <path id="Path_422" data-name="Path 422" d="M406.26,302.444c-7.346-8.328-18.5-11.312-28.37-15.959-2.729-1.284-5.473-2.784-7.378-5.2-2.653-3.363-3.289-8.065-2.741-12.388,2.3-18.093,22.026-29.246,25.21-47.191,2.409-13.575-5.9-27.359-17.158-34.544s-24.863-8.992-38.035-9.553-26.526-.064-39.347-3.276c-3.381-.847-6.882-2.066-9.18-4.8-2.605-3.1-3.152-7.576-2.738-11.681,1.117-11.066,26.333-49.113,13.7-61.668a23.538,23.538,0,0,0-15.827-7.03c7.979,2.169,13.814,6.731,9.566,16.076-9.81,21.582-100.847,93.391-36.885,100.454s-41.986,63.96,6.279,67.884c36.818,2.993-38.711,46.125-76.478,65.642H386.241c20.442,0,32.817-20.933,20.8-35.839Q406.664,302.9,406.26,302.444Z" transform="translate(-63.694 -89.143)" fill="#a6cef4" opacity="0.41" style="mix-blend-mode: multiply;isolation: isolate"/>
        <path id="Path_423" data-name="Path 423" d="M96.454,150.907s66.292,22.819,95.77-30.523S40.816,131.088,96.454,150.907Z" transform="translate(-44.034 -91.181)" fill="#cae2ff"/>
        <path id="Path_424" data-name="Path 424" d="M180.689,99.65c4.7,3.118,5.629,8.743.719,17.628-20.855,37.738-60.131,37.355-81.328,33.9,7.736,2.406,67.392,19.038,94.929-30.793C203.154,105.648,195.236,99.875,180.689,99.65Z" transform="translate(-46.819 -91.183)" fill="#a6cef4" opacity="0.41" style="mix-blend-mode: multiply;isolation: isolate"/>
      </g>
      <g id="Group_415" data-name="Group 415" transform="translate(0.187 154.181)">
        <g id="Group_414" data-name="Group 414">
          <g id="Group_409" data-name="Group 409" transform="translate(13.955)">
            <path id="Path_425" data-name="Path 425" d="M67.982,351.842s-2.419-2.26-.8-10.833S72.93,324.2,70.909,314.9s-17.87-32.752-17.923-34.312-4.889,27.282,3.306,38.643,9.182,15.3,8.818,21.278.085,10.786.984,12.176Z" transform="translate(-51.521 -280.53)" fill="#4286e8"/>
            <path id="Path_426" data-name="Path 426" d="M66.836,334.614c-.953,3.824-1.529,13.414-.006,15.709.142.214.346.093.6-.3-.464-1.585-.769-4.363.109-9,1.624-8.574,5.744-16.806,3.723-26.107s-17.87-32.752-17.923-34.312c0,0,2.389,19.539,10.431,32.986C69.529,323.221,67.788,330.79,66.836,334.614Z" transform="translate(-51.875 -280.545)" fill="#1d54b5"/>
          </g>
          <g id="Group_410" data-name="Group 410" transform="translate(31.942 20.92)">
            <path id="Path_427" data-name="Path 427" d="M75.213,356.3s-4.656-11.624,3.234-21.689,20.51-22.988,20.762-28.108c0,0,3.242,24.307-7.028,31.187s-17.473,7.979-15.692,18.566Z" transform="translate(-73.848 -306.499)" fill="#4286e8"/>
            <path id="Path_428" data-name="Path 428" d="M86.572,332.8c-11.451,8.336-12.388,17.938-10.611,22.391a1.136,1.136,0,0,0,.745.671c-1.535-10.219,5.608-11.381,15.749-18.176,10.27-6.881,7.028-31.187,7.028-31.187S98.025,324.464,86.572,332.8Z" transform="translate(-74.122 -306.499)" fill="#1d54b5"/>
          </g>
          <g id="Group_412" data-name="Group 412" transform="translate(0 16.292)">
            <path id="Path_429" data-name="Path 429" d="M59.847,355.44a40.634,40.634,0,0,0,.7-12.8c-.794-6.645-7.736-10.383-14.223-17.4-3.337-3.611-4.324-22.709-2.255-24.483,0,0-11.451,13.878-9.685,24.039s20.447,16.764,22.176,21.673a27.266,27.266,0,0,1,1.585,9.032Z" transform="translate(-34.198 -300.754)" fill="#4286e8"/>
            <g id="Group_411" data-name="Group 411" transform="translate(4.613)">
              <path id="Path_430" data-name="Path 430" d="M41.311,306.278c-3.785,10.249.094,22.663,12.667,30.373,9.256,5.676,6.309,17.479,6.309,17.479l1.512-4.657a36.963,36.963,0,0,0-.14-6.772c-.794-6.645-7.736-10.383-14.223-17.4-3.218-3.483-4.249-21.367-2.463-24.225A61.147,61.147,0,0,0,41.311,306.278Z" transform="translate(-39.924 -300.816)" fill="#1d54b5"/>
              <path id="Path_431" data-name="Path 431" d="M46.192,301.013c.13-.164.208-.259.208-.259A1.169,1.169,0,0,0,46.192,301.013Z" transform="translate(-41.143 -300.754)" fill="#49b4d6"/>
            </g>
          </g>
          <g id="Group_413" data-name="Group 413" transform="translate(35.702 45.837)">
            <path id="Path_432" data-name="Path 432" d="M78.516,361.8s2.684-9.959,9.322-11.3,14.26-11.149,14.672-13.073C102.51,337.429,101.391,355.928,78.516,361.8Z" transform="translate(-78.516 -337.429)" fill="#4286e8"/>
            <path id="Path_433" data-name="Path 433" d="M88.082,353.794c-4.067,2.033-5.758,4.769-6.359,7.252,20.366-6.549,21.411-23.617,21.411-23.617a7.291,7.291,0,0,1-1.034,1.945C100.1,342.874,95.267,350.2,88.082,353.794Z" transform="translate(-79.139 -337.429)" fill="#1d54b5"/>
          </g>
        </g>
        <path id="Path_434" data-name="Path 434" d="M87.969,363.131H53.251l4.123,25.931a4.05,4.05,0,0,0,4,3.414H79.846a4.05,4.05,0,0,0,4-3.414Z" transform="translate(-37.902 -296.589)" fill="#f95858"/>
        <path id="Path_435" data-name="Path 435" d="M87.287,367.421l.682-4.29H53.251l.682,4.29Z" transform="translate(-37.902 -296.589)" fill="#e53838"/>
        <path id="Path_436" data-name="Path 436" d="M83.946,363.131l-4.123,25.931a4.05,4.05,0,0,1-4,3.414h8.411a4.05,4.05,0,0,0,4-3.414l4.123-25.931Z" transform="translate(-42.291 -296.589)" fill="#e53838"/>
      </g>
      <g id="Group_433" data-name="Group 433" transform="translate(51.886 79.298)">
        <g id="Group_416" data-name="Group 416" transform="translate(92.915 28.621)">
          <rect id="Rectangle_84" data-name="Rectangle 84" width="7.226" height="59.102" transform="translate(34.911 83.1)" fill="#fff"/>
          <rect id="Rectangle_85" data-name="Rectangle 85" width="2.839" height="59.102" transform="translate(39.298 83.1)" fill="#e8f2fc"/>
          <path id="Path_437" data-name="Path 437" d="M277.182,393.615h-39.5a2.42,2.42,0,0,0-2.42,2.42h0a2.42,2.42,0,0,0,2.42,2.42h39.5a2.42,2.42,0,0,0,2.42-2.42h0A2.42,2.42,0,0,0,277.182,393.615Z" transform="translate(-217.901 -256.253)" fill="#fff"/>
          <path id="Path_438" data-name="Path 438" d="M277.267,393.615h-39.5a2.411,2.411,0,0,0-2.066,1.177h34.21a2.407,2.407,0,0,1,2.066,3.663h5.291a2.42,2.42,0,1,0,0-4.84Z" transform="translate(-217.986 -256.253)" fill="#e8f2fc"/>
          <rect id="Rectangle_86" data-name="Rectangle 86" width="7.226" height="5.262" transform="translate(34.911 83.1)" fill="#e8f2fc"/>
          <path id="Path_439" data-name="Path 439" d="M293.285,223.8a8.227,8.227,0,0,0-3.345-.7H249.259a8.284,8.284,0,0,0-8.136,6.728l-12.748,66.646a8.318,8.318,0,0,0,0,3.135c0,.023.011.044.016.067h-11.31a3.37,3.37,0,0,0,0,6.74h36.557v-.1H277.2a8.284,8.284,0,0,0,8.136-6.728l12.741-66.646A8.294,8.294,0,0,0,293.285,223.8Z" transform="translate(-213.711 -223.103)" fill="#f93"/>
          <path id="Path_440" data-name="Path 440" d="M298.075,233.113l-12.737,66.648a8.278,8.278,0,0,1-8.133,6.723H253.637v.106H217.085a3.371,3.371,0,1,1,0-6.741h11.309a.209.209,0,0,1-.018-.071c.1.009.213.009.311.009h40.676a11.4,11.4,0,0,0,11.194-9.251l12.727-66.559A8.292,8.292,0,0,1,298.075,233.113Z" transform="translate(-213.712 -223.273)" fill="#e8f2fc"/>
          <path id="Path_441" data-name="Path 441" d="M280.638,306.1l-.08.4a11.4,11.4,0,0,1-11.194,9.251H228.688c-.1,0-.214,0-.311-.009a.209.209,0,0,0,.018.071H217.086a3.363,3.363,0,0,0-3.326,2.856v-9.109c0-.018-.009-.044-.009-.071a3.048,3.048,0,0,1,3.078-3.388Z" transform="translate(-213.713 -239.24)" fill="#fff"/>
          <path id="Path_442" data-name="Path 442" d="M296.788,223.8l-12.725,66.56a11.407,11.407,0,0,1-11.194,9.256H232.188c-.1,0-.21,0-.311-.007a8.319,8.319,0,0,1,0-3.135l12.748-66.646a8.284,8.284,0,0,1,8.136-6.728h40.681A8.227,8.227,0,0,1,296.788,223.8Z" transform="translate(-217.214 -223.103)" fill="#fff"/>
        </g>
        <g id="Group_420" data-name="Group 420" transform="translate(4.186 13.343)">
          <path id="Path_443" data-name="Path 443" d="M175.464,204.138H106.211a2.642,2.642,0,0,0-2.614,3.023l5.93,40.718a2.642,2.642,0,0,0,2.614,2.261h69.253a2.642,2.642,0,0,0,2.615-3.023L178.078,206.4A2.641,2.641,0,0,0,175.464,204.138Z" transform="translate(-103.569 -204.138)" fill="#1d54b5"/>
          <path id="Path_444" data-name="Path 444" d="M165.777,204.138H106.211a2.642,2.642,0,0,0-2.614,3.023l2.621,18a53.16,53.16,0,0,0,21.305,4.38C147.382,229.537,159.085,218.987,165.777,204.138Z" transform="translate(-103.569 -204.138)" fill="#3070ce"/>
          <g id="Group_417" data-name="Group 417" transform="translate(25.507 31.077)">
            <path id="Path_445" data-name="Path 445" d="M150.2,242.717H137.09a1.855,1.855,0,0,0-1.838,2.124l3.973,27.27a2.113,2.113,0,0,0,.015.258l.18,1.075a1.854,1.854,0,0,0,1.834,1.586h12.942Z" transform="translate(-135.231 -242.715)" fill="#4286e8"/>
            <path id="Path_446" data-name="Path 446" d="M172.252,273.123a1.88,1.88,0,0,0-1.879-1.85h-9.921a2.924,2.924,0,0,1-2.9-2.528L154.647,247.5h1.723a1.856,1.856,0,0,0,1.837-2.124l-.176-1.075a1.856,1.856,0,0,0-1.837-1.589h-3.441a2.594,2.594,0,0,0-2.571,2.939l3.627,27.023a2.713,2.713,0,0,0,2.688,2.352l13.875,0a1.88,1.88,0,0,0,1.88-1.908Z" transform="translate(-138.133 -242.715)" fill="#1d54b5"/>
          </g>
          <g id="Group_418" data-name="Group 418" transform="translate(50.013 38.881)">
            <path id="Path_447" data-name="Path 447" d="M168.136,253.643a1.242,1.242,0,1,1-1.242-1.241A1.242,1.242,0,0,1,168.136,253.643Z" transform="translate(-165.652 -252.402)" fill="#4286e8"/>
            <path id="Path_448" data-name="Path 448" d="M176.051,253.643a1.241,1.241,0,1,1-1.241-1.241A1.241,1.241,0,0,1,176.051,253.643Z" transform="translate(-167.191 -252.402)" fill="#4286e8"/>
            <circle id="Ellipse_15" data-name="Ellipse 15" cx="1.241" cy="1.241" r="1.241" transform="translate(11.964)" fill="#4286e8"/>
          </g>
          <path id="Path_449" data-name="Path 449" d="M190.583,223.023l3.62,24.856a2.642,2.642,0,0,0,2.614,2.261h1.039a2.642,2.642,0,0,0,2.615-3.023L194.541,206.4a2.641,2.641,0,0,0-2.614-2.26h-1.039a2.641,2.641,0,0,0-2.614,3.023l2.31,15.862" transform="translate(-120.031 -204.138)" fill="#4286e8"/>
          <g id="Group_419" data-name="Group 419" transform="translate(19.206 4.445)">
            <path id="Path_450" data-name="Path 450" d="M152.554,209.656H128.37a.959.959,0,0,0-.947,1.113l.162,1a.96.96,0,0,0,.947.806h24.185a.96.96,0,0,0,.947-1.113l-.163-1A.959.959,0,0,0,152.554,209.656Z" transform="translate(-127.41 -209.656)" fill="#4286e8"/>
          </g>
        </g>
        <g id="Group_429" data-name="Group 429" transform="translate(79.41)">
          <path id="Path_451" data-name="Path 451" d="M270.537,217.775c-.768-5.894-9.4-3.138-6.159-8.631,3-5.08-.491-7.328-4.614-8.119-5.257-1.011-2.273-3.081-4.831-7.987-3.251-6.233-8.265-4.382-8.265-4.382a11.566,11.566,0,0,0-12.69,1.986c-6.748,5.693-5.277,10.73-1.664,17.646,1.825,3.5-.416,6.61-2.013,13.036-1.916,7.709,7.6,23.228,27.97,12.746C266.146,230.016,270.943,220.9,270.537,217.775Z" transform="translate(-203.23 -187.578)" fill="#13448c"/>
          <path id="Path_452" data-name="Path 452" d="M237.016,226.316a11.56,11.56,0,0,0-6.274,3.5c-2.127,2.128-12.54,22.854-12.54,22.854l-9.611-29.432-7.037.541s7.923,47.336,14.087,47.424c5.829.084,24.344-30.562,24.344-30.562Z" transform="translate(-197.843 -194.508)" fill="#f95858"/>
          <path id="Path_453" data-name="Path 453" d="M262.94,238.428,269.1,261.5l-36.433,2.977.167,6.578s42,.188,49.911.1c5.269-.056-4.651-41.776-10.98-46.551-5.005-3.775-18.841-2.769-18.841-2.769l-9.86,4.185s-11.437,11.325-4.608,21.984c5.379,8.4-1.477,24.708-1.477,24.708l23.286,1.386,20.8.2Z" transform="translate(-203.892 -194.212)" fill="#f95858"/>
          <path id="Path_454" data-name="Path 454" d="M240.564,264.943l1.305-.238c1.249-5.454,1.472-12.906-1.374-16.488-5.64-7.1.167-17.4,3.428-21.131h-.006c-.522.527-11.248,11.56-4.588,21.966C242.512,254.02,241.734,260.49,240.564,264.943Z" transform="translate(-204.765 -195.256)" fill="#e54848"/>
          <path id="Path_455" data-name="Path 455" d="M230.365,276.677c-3.853.141-7.974,1.519-9.9,3.785a.778.778,0,0,0,.6,1.278h9.366Z" transform="translate(-201.483 -204.898)" fill="#ffb19e"/>
          <g id="Group_423" data-name="Group 423" transform="translate(31.769)">
            <path id="Path_456" data-name="Path 456" d="M253.654,209.89v7.779l-6.972,7.983-.044-.089-1.9-4.063v-4.364a8.849,8.849,0,0,1-7.37-6.892l-.985-5.384a16.9,16.9,0,0,0,9.331-4.755,19.923,19.923,0,0,0,3.025,4.045c1.3,1.287,3.087,1.606,3.769,2.306A4.281,4.281,0,0,1,253.654,209.89Z" transform="translate(-236.384 -190.011)" fill="#ffb19e"/>
            <path id="Path_457" data-name="Path 457" d="M253.26,200.715a21.55,21.55,0,0,0-1.5-6.077c-1.426-3.224-3.433-7-7.6-7.01,0,0,10.115-1.572,11.809,12.51Z" transform="translate(-237.896 -187.575)" fill="#ff4751"/>
            <g id="Group_421" data-name="Group 421" transform="translate(12.309 11.014)">
              <path id="Path_458" data-name="Path 458" d="M260.772,205.687a4.579,4.579,0,1,0-4.009,5.394A4.76,4.76,0,0,0,260.772,205.687Z" transform="translate(-251.663 -201.247)" fill="#ff4751"/>
              <path id="Path_459" data-name="Path 459" d="M257.616,210.6a4.583,4.583,0,0,1-4.879-4.25,4.635,4.635,0,0,1,3.342-5.1c-.124,0-.249.006-.375.02a4.948,4.948,0,0,0,1.059,9.809,4.268,4.268,0,0,0,2.073-.808A4.085,4.085,0,0,1,257.616,210.6Z" transform="translate(-251.663 -201.248)" fill="#cc3241"/>
              <path id="Path_460" data-name="Path 460" d="M259.729,206.4a2.219,2.219,0,1,0-1.944,2.614A2.307,2.307,0,0,0,259.729,206.4Z" transform="translate(-252.373 -201.83)" fill="#cc3241"/>
            </g>
            <path id="Path_461" data-name="Path 461" d="M253.346,217.15a28.032,28.032,0,0,1-3.264,3.566,2.311,2.311,0,0,0-.816,1.792l-.611,6.368-1.9-4.063v-4.346l.044-.044S251.191,219.758,253.346,217.15Z" transform="translate(-238.4 -193.325)" fill="#f48f7a"/>
            <g id="Group_422" data-name="Group 422" transform="translate(9.847 19.159)">
              <path id="Path_462" data-name="Path 462" d="M251.237,215.69l-.077-.443c2.543-.435,4.4-3.856,4.421-3.889l.4.213C255.9,211.719,253.994,215.219,251.237,215.69Z" transform="translate(-249.104 -211.358)" fill="#ff4751"/>
              <path id="Path_463" data-name="Path 463" d="M251.214,216.291c-.06-.417-.691-.646-1.41-.512s-1.253.582-1.192,1,.691.647,1.41.512S251.274,216.708,251.214,216.291Z" transform="translate(-248.607 -212.21)" fill="#ff4751"/>
            </g>
          </g>
          <path id="Path_464" data-name="Path 464" d="M207.451,220.592s.993-8.145.1-8.443-1.788,3.179-1.788,3.179-3.774-7.35-6.357-6.556,2.166,12.1,2.166,12.1Z" transform="translate(-197.276 -191.684)" fill="#ffb19e"/>
          <path id="Path_465" data-name="Path 465" d="M241.37,268.073l28.689-2.4a1.654,1.654,0,0,0,1.487-1.968c-1.06-5.363-4.123-20.74-4.306-20.281-.222.555,2.886,18.1-.777,19.875C263.958,264.514,241.37,268.073,241.37,268.073Z" transform="translate(-205.584 -198.431)" fill="#e54848"/>
          <g id="Group_425" data-name="Group 425" transform="translate(0 78.465)">
            <g id="Group_424" data-name="Group 424" transform="translate(40.085 70.643)">
              <path id="Path_466" data-name="Path 466" d="M263.406,378.066a.932.932,0,0,0-.546.371c-1.826,2.54-3.445,3.14-6.649,3.571a1.9,1.9,0,0,0-.6.2c.246-.369,1.313-2.117.578-3.691a17.9,17.9,0,0,0-1.827-3.065l4.68-2.786S261.91,375.978,263.406,378.066Z" transform="translate(-248.195 -372.667)" fill="#ffb19e"/>
              <path id="Path_467" data-name="Path 467" d="M265.382,385.313c-.827.793-14.18,8.091-17.352,9.922-.387.224-1.173.633-1.316.209-.226-.662,5.549-11.8,8.01-12.138,3.2-.433,4.822-1.031,6.645-3.574a.932.932,0,0,1,1.537.018C264.187,381.689,266.047,384.676,265.382,385.313Z" transform="translate(-246.707 -373.964)" fill="#13448c"/>
            </g>
            <path id="Path_468" data-name="Path 468" d="M230.219,284.976s-32.4,15.02-33.262,25.437c-.764,9.264,46.991,51.648,46.991,51.648l7.551-3.109-26.136-42.128s27.687-13.647,34.453-30.079Z" transform="translate(-196.948 -284.976)" fill="#13448c"/>
            <path id="Path_469" data-name="Path 469" d="M211.421,308.471c-2.2,4.229-3.813,10.136-4.939,15.489,3.669,4.355,8.3,9.259,13.079,14.081-3.532-13.958-6.669-27.955-5.585-29.96,2.066-3.823,15.8-13.988,25.5-19.043C239.476,289.038,216.521,298.661,211.421,308.471Z" transform="translate(-198.801 -285.766)" fill="#09326d"/>
          </g>
          <g id="Group_428" data-name="Group 428" transform="translate(14.954 79.192)">
            <g id="Group_426" data-name="Group 426" transform="translate(0.116 77.17)">
              <path id="Path_470" data-name="Path 470" d="M239.761,388.515a.933.933,0,0,0-.658.057c-2.834,1.324-4.54,1.057-7.545-.132a1.9,1.9,0,0,0-.623-.118c.395-.2,2.18-1.206,2.307-2.939a17.9,17.9,0,0,0-.1-3.566l5.444-.145S239.476,385.962,239.761,388.515Z" transform="translate(-218.626 -381.672)" fill="#ffb19e"/>
              <path id="Path_471" data-name="Path 471" d="M236.906,397.41c-1.109.288-16.868.113-20.531.16a.708.708,0,0,1-.708-.836c.127-.687,10.609-7.589,12.918-6.677,3,1.185,4.712,1.455,7.545.127a.932.932,0,0,1,1.332.766C237.633,393.268,237.8,397.178,236.906,397.41Z" transform="translate(-215.655 -383.286)" fill="#13448c"/>
            </g>
            <g id="Group_427" data-name="Group 427">
              <path id="Path_472" data-name="Path 472" d="M277.614,286.7s2.715,18.35-13.733,22.995a223.133,223.133,0,0,1-26.869,5.53l.995,52.082h-8.649s-15.877-55.691-13.631-59.837c2.55-4.709,22.754-19.01,31.384-21.591Z" transform="translate(-215.511 -285.878)" fill="#1d54b5"/>
              <path id="Path_473" data-name="Path 473" d="M240.581,315.356a223.134,223.134,0,0,0,26.869-5.53c16.448-4.645,13.733-22.995,13.733-22.995L271,286.558c-3.059,6.578-13.009,22.867-37.135,24.624l5.463,56.256h2.248Z" transform="translate(-219.079 -286.01)" fill="#0e367c" opacity="0.13" style="mix-blend-mode: multiply;isolation: isolate"/>
            </g>
          </g>
        </g>
        <g id="Group_432" data-name="Group 432" transform="translate(0 76.793)">
          <g id="Group_430" data-name="Group 430" transform="translate(5.205 2.473)">
            <path id="Path_474" data-name="Path 474" d="M108.456,377.762l-3.621-.028,15.056-90.487,3.643-.028Z" transform="translate(-104.834 -286.213)" fill="#fff"/>
            <path id="Path_475" data-name="Path 475" d="M289.966,377.49l3.847.03-18.667-91.549-3.823.029Z" transform="translate(-137.202 -285.971)" fill="#fff"/>
          </g>
          <g id="Group_431" data-name="Group 431" transform="translate(19.275 2.473)">
            <path id="Path_476" data-name="Path 476" d="M125.936,292.236l.993-5.017-3.644.028-.987,4.989Z" transform="translate(-122.299 -286.213)" fill="#e4edf7"/>
            <path id="Path_477" data-name="Path 477" d="M276.37,291.993l-1.224-6.022-3.823.029,1.218,5.993Z" transform="translate(-151.271 -285.971)" fill="#e4edf7"/>
          </g>
          <path id="Path_478" data-name="Path 478" d="M263.484,282.9H100.212a1.839,1.839,0,0,0-1.839,1.839h0a1.839,1.839,0,0,0,1.839,1.839H263.484a1.839,1.839,0,0,0,1.839-1.839h0A1.839,1.839,0,0,0,263.484,282.9Z" transform="translate(-98.373 -282.901)" fill="#fff"/>
        </g>
      </g>
      <g id="Group_448" data-name="Group 448" transform="translate(57.784 11.076)">
        <g id="Group_438" data-name="Group 438" transform="translate(45.703 37.881)">
          <path id="Path_479" data-name="Path 479" d="M211.425,176.832l-4.3-24.913a2.346,2.346,0,0,0-2.322-2.008l-40.027.437a2.346,2.346,0,0,0-2.322,2.684l3.775,21.86,1.909,12.376a.725.725,0,0,0,1.32.291l5.095-7.665,34.552-.378A2.347,2.347,0,0,0,211.425,176.832Z" transform="translate(-162.427 -149.912)" fill="#1d54b5"/>
          <g id="Group_437" data-name="Group 437" transform="translate(10.919 7.73)">
            <g id="Group_434" data-name="Group 434">
              <path id="Path_480" data-name="Path 480" d="M199.826,159.507h-23.2a.648.648,0,0,0-.64.752l.109.677a.649.649,0,0,0,.64.545h23.2a.649.649,0,0,0,.64-.752l-.11-.677A.648.648,0,0,0,199.826,159.507Z" transform="translate(-175.981 -159.507)" fill="#fff"/>
            </g>
            <g id="Group_435" data-name="Group 435" transform="translate(0.779 6.157)">
              <path id="Path_481" data-name="Path 481" d="M200.794,167.15H177.6a.649.649,0,0,0-.64.752l.11.676a.649.649,0,0,0,.64.545h23.2a.648.648,0,0,0,.64-.752l-.11-.677A.648.648,0,0,0,200.794,167.15Z" transform="translate(-176.949 -167.15)" fill="#fff"/>
            </g>
            <g id="Group_436" data-name="Group 436" transform="translate(7.716 12.842)">
              <path id="Path_482" data-name="Path 482" d="M196.943,175.448l-10.734.019a.649.649,0,0,0-.64.752l.11.677a.648.648,0,0,0,.64.545l10.735-.019a.648.648,0,0,0,.64-.752l-.11-.677A.647.647,0,0,0,196.943,175.448Z" transform="translate(-185.56 -175.448)" fill="#fff"/>
            </g>
          </g>
        </g>
        <g id="Group_443" data-name="Group 443" transform="translate(212.634)">
          <path id="Path_483" data-name="Path 483" d="M414.31,128.212l5.327-23.434a1.4,1.4,0,0,0-1.428-1.889l-37.816.412a3.625,3.625,0,0,0-3.194,2.525l-4.673,20.562-2.861,11.642c-.151.615.581.793,1.133.274l7.676-7.211,32.643-.355A3.623,3.623,0,0,0,414.31,128.212Z" transform="translate(-369.644 -102.889)" fill="#1d54b5"/>
          <g id="Group_442" data-name="Group 442" transform="translate(14.646 7.61)">
            <g id="Group_439" data-name="Group 439" transform="translate(1.507)">
              <path id="Path_484" data-name="Path 484" d="M411.456,112.335H390.7a.952.952,0,0,0-.843.673l-.143.606a.366.366,0,0,0,.378.487h20.76a.95.95,0,0,0,.842-.673l.144-.6A.366.366,0,0,0,411.456,112.335Z" transform="translate(-389.695 -112.335)" fill="#fff"/>
            </g>
            <g id="Group_440" data-name="Group 440" transform="translate(0 5.51)">
              <path id="Path_485" data-name="Path 485" d="M409.586,119.175H388.825a.953.953,0,0,0-.842.673l-.144.6a.367.367,0,0,0,.378.488h20.761a.952.952,0,0,0,.842-.673l.144-.606A.366.366,0,0,0,409.586,119.175Z" transform="translate(-387.824 -119.175)" fill="#fff"/>
            </g>
            <g id="Group_441" data-name="Group 441" transform="translate(3.809 11.492)">
              <path id="Path_486" data-name="Path 486" d="M403.167,126.6l-9.614.017a.952.952,0,0,0-.842.673l-.144.606a.366.366,0,0,0,.378.487l9.614-.017a.95.95,0,0,0,.842-.673l.144-.606A.366.366,0,0,0,403.167,126.6Z" transform="translate(-392.552 -126.601)" fill="#fff"/>
            </g>
          </g>
        </g>
        <g id="Group_447" data-name="Group 447" transform="translate(0 32.649)">
          <path id="Path_487" data-name="Path 487" d="M147.58,175.389a.725.725,0,0,0,1.178-.681l-5.132-29.588a1.991,1.991,0,0,0-1.97-1.7l-33.968.371a1.991,1.991,0,0,0-1.97,2.278l3.651,21.142a1.992,1.992,0,0,0,1.97,1.7l26.156-.286a5.245,5.245,0,0,1,3.412,1.212Z" transform="translate(-105.695 -143.417)" fill="#f95858"/>
          <g id="Group_446" data-name="Group 446" transform="translate(7.462 8.88)">
            <g id="Group_444" data-name="Group 444">
              <path id="Path_488" data-name="Path 488" d="M138.8,154.44h-23.2a.649.649,0,0,0-.64.752l.11.677a.648.648,0,0,0,.64.545h23.2a.648.648,0,0,0,.64-.752l-.11-.677A.648.648,0,0,0,138.8,154.44Z" transform="translate(-114.958 -154.44)" fill="#fff"/>
            </g>
            <g id="Group_445" data-name="Group 445" transform="translate(0.78 6.158)">
              <path id="Path_489" data-name="Path 489" d="M139.771,162.084h-23.2a.648.648,0,0,0-.64.752l.11.677a.647.647,0,0,0,.64.545h23.2a.648.648,0,0,0,.64-.752l-.11-.677A.649.649,0,0,0,139.771,162.084Z" transform="translate(-115.925 -162.084)" fill="#fff"/>
            </g>
          </g>
        </g>
      </g>
      <g id="Group_463" data-name="Group 463" transform="translate(208.532 19.528)">
        <g id="Group_461" data-name="Group 461" transform="translate(0)">
          <g id="Group_451" data-name="Group 451" transform="translate(0 35.694)">
            <path id="Path_490" data-name="Path 490" d="M365.748,244.45l-.125,4.657-2.8,108.145H351.654l-9.9-92.663a.039.039,0,0,0-.009.027l-12.582,31.241,8.586,61.393-4.129.035-6.83.063s-20.43-61.267-20.019-65.236,15.755-47.261,15.755-47.261Z" transform="translate(-295.534 -174.557)" fill="#1d54b5"/>
            <path id="Path_491" data-name="Path 491" d="M370.806,160.646l-20.991-2.886-.492-.072-10.038.045-.089.018-11.989,3v67.423h43.6Z" transform="translate(-299.508 -157.689)" fill="#f95858"/>
            <path id="Path_492" data-name="Path 492" d="M425.917,174.961s1.526-9.532,2.633-9.578.988,4.175.988,4.175,6.658-7.082,9.319-5.343-6.383,12.972-6.383,12.972Z" transform="translate(-318.698 -158.905)" fill="#ffb19e"/>
            <path id="Path_493" data-name="Path 493" d="M332.618,157.8l1.137,74.452h-15.7l-1.108-20.377-20.828-.338a3.192,3.192,0,0,1-3.17-4.072l10.376-36.077a12.261,12.261,0,0,1,8.823-8.527l20.363-5.1Z" transform="translate(-292.823 -157.704)" fill="#4286e8"/>
            <path id="Path_494" data-name="Path 494" d="M419.4,176.292l-20.194,41.484a3.445,3.445,0,0,1-5.962.116l-15.8-26.191-.787,40.556H359.886L355.193,157.8l.063-.018,21.329,2.932a12.362,12.362,0,0,1,9.269,6.829l10.789,22.249a.846.846,0,0,0,1.4.169l13.724-16.394Z" transform="translate(-304.949 -157.707)" fill="#4286e8"/>
            <path id="Path_495" data-name="Path 495" d="M322.647,222.581h20.465l.2-10.479-20.465-.3Z" transform="translate(-298.621 -168.21)" fill="#4286e8"/>
            <path id="Path_496" data-name="Path 496" d="M348.188,219.758c5.772-.211,11.946-2.276,14.836-5.671a1.166,1.166,0,0,0-.894-1.915H348.1Z" transform="translate(-303.569 -168.282)" fill="#ffb19e"/>
            <path id="Path_497" data-name="Path 497" d="M335.285,225.611l.019-.336-12.521-.092,1.1,20.179,3.735-16.72Z" transform="translate(-298.648 -170.811)" fill="#13448c" opacity="0.41"/>
            <path id="Path_498" data-name="Path 498" d="M377.152,250.231l-2.8,108.145h-.787l-7.5-108.145Z" transform="translate(-307.063 -175.681)" fill="#0e367c" opacity="0.32" style="mix-blend-mode: multiply;isolation: isolate"/>
            <path id="Path_499" data-name="Path 499" d="M341.608,208.431s-27.761,2.011-27.582,1.483l4.819-16.606.071.251.474,11.584C319.452,206.716,340.161,208.02,341.608,208.431Z" transform="translate(-296.945 -164.614)" fill="#13448c" opacity="0.41"/>
            <path id="Path_500" data-name="Path 500" d="M404.578,222.237l20.194-41.484-.093-.031c-2.143-.01-20.933,39.277-22.91,40.266-2.251,1.125-18.957-24.825-18.957-24.825l15.8,26.191A3.444,3.444,0,0,0,404.578,222.237Z" transform="translate(-310.318 -162.167)" fill="#13448c" opacity="0.41"/>
            <g id="Group_449" data-name="Group 449" transform="translate(18.408 182.596)">
              <path id="Path_501" data-name="Path 501" d="M329.793,384.431c-2.409,4.935-13.862,7.429-13.862,7.429a3.151,3.151,0,0,0,.481,3.3c1.308,1.842,13.359.714,14.87.379a5.255,5.255,0,0,0,2.55-1.561,8.423,8.423,0,0,0,1.581,1.374c.566.272,3.644-.344,3.644-.344.724-1.963,0-9.458-.206-10.654Z" transform="translate(-315.673 -384.352)" fill="#13448c"/>
            </g>
            <g id="Group_450" data-name="Group 450" transform="translate(56.668 182.596)">
              <path id="Path_502" data-name="Path 502" d="M372.745,384.431c2.41,4.935,13.862,7.429,13.862,7.429a3.15,3.15,0,0,1-.482,3.3c-1.307,1.842-13.358.714-14.869.379a5.256,5.256,0,0,1-2.551-1.561,8.421,8.421,0,0,1-1.581,1.374c-.566.272-3.644-.344-3.644-.344-.724-1.963,0-9.458.206-10.654Z" transform="translate(-363.167 -384.352)" fill="#13448c"/>
            </g>
            <path id="Path_503" data-name="Path 503" d="M332.959,300.724l8.586,61.393-4.129.035c-2.548-13.22-11.456-57.423-11.125-60.194.384-3.308,18.687-31.537,19.25-32.476Z" transform="translate(-299.328 -179.424)" fill="#0e367c" opacity="0.32" style="mix-blend-mode: multiply;isolation: isolate"/>
          </g>
          <g id="Group_460" data-name="Group 460" transform="translate(31.642)">
            <g id="Group_453" data-name="Group 453" transform="translate(0.875)">
              <path id="Path_504" data-name="Path 504" d="M352.682,155.717c-1.522,1.215-5.2,3.8-5.2,3.8s-3.742-2.563-5.289-3.794l-.012-8.886h10.5Z" transform="translate(-334.936 -119.886)" fill="#ffb19e" fill-rule="evenodd"/>
              <path id="Path_505" data-name="Path 505" d="M352.687,146.841v3.717a8.278,8.278,0,0,1-10.5.043v-3.76Z" transform="translate(-334.937 -119.886)" fill="#ffb19e" fill-rule="evenodd"/>
              <path id="Path_506" data-name="Path 506" d="M334.03,134.592h23.592l.364-6.568c5.215-2.206,1.3-14.643,1.3-14.643.3,3.009-7.823,3.109-11.032,2.608a8.729,8.729,0,0,0-5.416.8s-10.23-2.206-9.628,12.136A26.422,26.422,0,0,0,334.03,134.592Z" transform="translate(-333.187 -113.381)" fill="#13448c" fill-rule="evenodd"/>
              <g id="Group_452" data-name="Group 452" transform="translate(0.045 9.74)">
                <path id="Path_507" data-name="Path 507" d="M355.854,130.364v5.919a9.189,9.189,0,0,1-2.881,6.686c-.3.267-.6.556-.914.845a8.275,8.275,0,0,1-11.338,0l-.9-.845a9.132,9.132,0,0,1-2.892-6.667v-4.518a35.6,35.6,0,0,0,6.494-6.314S347.58,129.462,355.854,130.364Z" transform="translate(-333.96 -125.471)" fill="#ffb19e" fill-rule="evenodd"/>
                <path id="Path_508" data-name="Path 508" d="M352.687,148.669v2.244a8.278,8.278,0,0,1-10.5.043V148.7A8.266,8.266,0,0,0,352.687,148.669Z" transform="translate(-334.982 -129.981)" fill="#f48f7a" fill-rule="evenodd"/>
                <path id="Path_509" data-name="Path 509" d="M338.562,139.428a3,3,0,0,0-4.195-4.2,1.815,1.815,0,0,0-.571.571,3,3,0,0,0,4.2,4.2A1.812,1.812,0,0,0,338.562,139.428Z" transform="translate(-333.243 -127.262)" fill="#ffb19e" fill-rule="evenodd"/>
                <path id="Path_510" data-name="Path 510" d="M361.957,139.429a3,3,0,0,0-3.986-4.317,2.279,2.279,0,0,0-.9.9A3,3,0,0,0,361.386,140,1.8,1.8,0,0,0,361.957,139.429Z" transform="translate(-337.792 -127.262)" fill="#ffb19e" fill-rule="evenodd"/>
              </g>
            </g>
            <g id="Group_459" data-name="Group 459" transform="translate(0 2.343)">
              <path id="Path_511" data-name="Path 511" d="M357.527,129.6h-.9V126.5c0-5.158-4.7-9.354-10.487-9.354H345.7c-5.783,0-10.488,4.2-10.488,9.354V129.6h-.9V126.5c0-5.629,5.107-10.208,11.385-10.208h.442c6.277,0,11.385,4.58,11.385,10.208Z" transform="translate(-332.532 -116.289)" fill="#a31919"/>
              <g id="Group_458" data-name="Group 458" transform="translate(0 11.658)">
                <g id="Group_456" data-name="Group 456">
                  <g id="Group_454" data-name="Group 454" transform="translate(21.719)">
                    <path id="Path_512" data-name="Path 512" d="M361.591,130.761h0a2.538,2.538,0,0,0-2.529,2.53V137.8a2.537,2.537,0,0,0,2.529,2.53h0a2.537,2.537,0,0,0,2.53-2.53v-4.509A2.538,2.538,0,0,0,361.591,130.761Z" transform="translate(-359.062 -130.761)" fill="#f95858"/>
                    <path id="Path_513" data-name="Path 513" d="M362.019,130.761a2.49,2.49,0,0,0-.758.13,2.531,2.531,0,0,1,1.771,2.4V137.8a2.53,2.53,0,0,1-1.771,2.4,2.465,2.465,0,0,0,.758.13,2.537,2.537,0,0,0,2.53-2.53v-4.509A2.538,2.538,0,0,0,362.019,130.761Z" transform="translate(-359.49 -130.761)" fill="#cc3241"/>
                  </g>
                  <g id="Group_455" data-name="Group 455">
                    <path id="Path_514" data-name="Path 514" d="M334.631,130.761h0a2.538,2.538,0,0,0-2.53,2.53V137.8a2.537,2.537,0,0,0,2.53,2.53h0a2.537,2.537,0,0,0,2.53-2.53v-4.509A2.538,2.538,0,0,0,334.631,130.761Z" transform="translate(-332.101 -130.761)" fill="#f95858"/>
                    <path id="Path_515" data-name="Path 515" d="M335.058,130.761a2.491,2.491,0,0,0-.758.13,2.531,2.531,0,0,1,1.771,2.4V137.8a2.53,2.53,0,0,1-1.771,2.4,2.465,2.465,0,0,0,.758.13,2.537,2.537,0,0,0,2.53-2.53v-4.509A2.538,2.538,0,0,0,335.058,130.761Z" transform="translate(-332.529 -130.761)" fill="#cc3241"/>
                  </g>
                </g>
                <g id="Group_457" data-name="Group 457" transform="translate(15.017 8.083)">
                  <path id="Path_516" data-name="Path 516" d="M353.713,145.106l-.032-.5c2.885-.183,5.362-3.772,5.387-3.808l.417.284C359.378,141.236,356.84,144.908,353.713,145.106Z" transform="translate(-351.314 -140.795)" fill="#ff4751"/>
                  <path id="Path_517" data-name="Path 517" d="M353.7,145.688c-.018-.472-.694-.8-1.51-.738s-1.465.5-1.447.971.694.8,1.51.738S353.717,146.159,353.7,145.688Z" transform="translate(-350.743 -141.601)" fill="#ff4751"/>
                </g>
              </g>
            </g>
          </g>
        </g>
        <g id="Group_462" data-name="Group 462" transform="translate(21.478 48.821)">
          <path id="Path_518" data-name="Path 518" d="M359.6,173.984H322.957a3.564,3.564,0,0,0-3.47,3.818l.961,23.587a3.611,3.611,0,0,0,3.558,3.441h34.547a3.61,3.61,0,0,0,3.557-3.441l.961-23.587A3.563,3.563,0,0,0,359.6,173.984Z" transform="translate(-319.484 -173.984)" fill="#13448c"/>
          <path id="Path_519" data-name="Path 519" d="M359.831,173.984H323.185a3.377,3.377,0,0,0-2.526,1.141,3.3,3.3,0,0,1,.945-.151h36.645a3.562,3.562,0,0,1,3.47,3.818l-.96,23.587a3.57,3.57,0,0,1-.978,2.286,3.614,3.614,0,0,0,2.559-3.275L363.3,177.8A3.563,3.563,0,0,0,359.831,173.984Z" transform="translate(-319.712 -173.984)" fill="#1d54b5"/>
          <path id="Path_520" data-name="Path 520" d="M349.36,192.885a4.152,4.152,0,1,0-4.152,4.153A4.153,4.153,0,0,0,349.36,192.885Z" transform="translate(-323.678 -176.851)" fill="#4286e8"/>
        </g>
      </g>
    </g>
  </g>
</svg>
