<svg xmlns="http://www.w3.org/2000/svg" width="44.313" height="49.544" viewBox="0 0 44.313 49.544">
  <g id="documents" transform="translate(-18.68 -13.658)">
    <path id="Path_12251" data-name="Path 12251" d="M140.419,87.414H119.555V125.8H149.1V96.092Z" transform="translate(-100.875 -73.756)" fill="#ffd400"/>
    <path id="Path_12252" data-name="Path 12252" d="M223.682,96.092,215,87.414h-7.053V125.8h15.73Z" transform="translate(-175.461 -73.756)" fill="#ffb000"/>
    <path id="Path_12253" data-name="Path 12253" d="M253.09,96.092h8.678l-8.678-8.678Z" transform="translate(-213.546 -73.756)" fill="#ff432e"/>
    <path id="Path_12254" data-name="Path 12254" d="M234.957,158.828H214.093v38.386h29.542V167.506Z" transform="translate(-180.642 -134.012)" fill="#fff"/>
    <path id="Path_12255" data-name="Path 12255" d="M322.829,167.506l-8.678-8.678h-6.2v38.386h14.877Z" transform="translate(-259.836 -134.012)" fill="#f2f6fc"/>
    <g id="Group_9805" data-name="Group 9805" transform="translate(37.42 24.816)">
      <path id="Path_12256" data-name="Path 12256" d="M347.627,167.506H356.3l-8.678-8.678Z" transform="translate(-330.733 -158.828)" fill="#dce1eb"/>
      <rect id="Rectangle_552" data-name="Rectangle 552" width="21.602" height="1.939" transform="translate(0 12.74)" fill="#dce1eb"/>
    </g>
    <rect id="Rectangle_553" data-name="Rectangle 553" width="10.907" height="1.939" transform="translate(48.115 37.556)" fill="#cdd2e1"/>
    <rect id="Rectangle_554" data-name="Rectangle 554" width="21.602" height="1.939" transform="translate(37.42 42.125)" fill="#dce1eb"/>
    <rect id="Rectangle_555" data-name="Rectangle 555" width="10.907" height="1.939" transform="translate(48.115 42.125)" fill="#cdd2e1"/>
    <rect id="Rectangle_556" data-name="Rectangle 556" width="21.602" height="1.939" transform="translate(37.42 46.695)" fill="#dce1eb"/>
    <rect id="Rectangle_557" data-name="Rectangle 557" width="10.907" height="1.939" transform="translate(48.115 46.695)" fill="#cdd2e1"/>
    <rect id="Rectangle_558" data-name="Rectangle 558" width="21.602" height="1.939" transform="translate(37.42 51.265)" fill="#dce1eb"/>
    <rect id="Rectangle_559" data-name="Rectangle 559" width="10.907" height="1.939" transform="translate(48.115 51.265)" fill="#cdd2e1"/>
  </g>
</svg>
